<svg width="32" height="32" viewBox="0 0 32 32" fill="none" xmlns="http://www.w3.org/2000/svg">
<g filter="url(#filter0_i)">
<path d="M31.57 1.19336C31.4957 0.847653 31.1539 0.505857 30.8071 0.431638C28.7947 -2.51732e-06 27.2192 -2.37958e-06 25.6505 -2.24243e-06C19.1985 -1.67838e-06 15.3293 3.45019 12.4408 8L5.92736 8C4.90563 8.00097 3.70507 8.74219 3.24694 9.65527L0.157228 15.8311C0.0617446 16.0417 0.00833518 16.2689 1.44248e-06 16.5C0.000145144 16.8978 0.158276 17.2793 0.439629 17.5606C0.720981 17.8419 1.10252 18 1.50037 18L7.98851 18L6.58385 19.4043C5.87353 20.1144 5.7716 21.4204 6.58385 22.2324L9.76537 25.4141C10.4626 26.1133 11.7751 26.2363 12.5952 25.4141L13.9999 24.0098L13.9999 30.5C14 30.8978 14.1581 31.2793 14.4395 31.5606C14.7208 31.8419 15.1024 31.9999 15.5002 32C15.7314 31.9914 15.9586 31.938 16.1694 31.8428L22.3399 28.7559C23.2542 28.2998 23.9967 27.0996 23.9967 26.0771L23.9967 19.5498C28.534 16.6553 31.9988 12.7744 31.9988 6.35644C32.0047 4.78125 32.0047 3.20605 31.57 1.19336ZM24.0025 10.5C23.5081 10.4999 23.0248 10.3532 22.6138 10.0784C22.2027 9.8036 21.8824 9.41311 21.6933 8.95629C21.5041 8.49946 21.4547 7.99681 21.5512 7.5119C21.6478 7.02699 21.8859 6.58159 22.2356 6.23202C22.5852 5.88245 23.0307 5.6444 23.5156 5.54799C24.0006 5.45158 24.5032 5.50112 24.96 5.69036C25.4168 5.87959 25.8072 6.20002 26.0818 6.61113C26.3565 7.02224 26.5031 7.50557 26.5031 8C26.5027 8.66302 26.2391 9.29878 25.7703 9.76755C25.3014 10.2363 24.6655 10.4998 24.0025 10.5V10.5Z" fill="#8C9FB1"/>
</g>
<defs>
<filter id="filter0_i" x="0" y="0" width="32" height="33" filterUnits="userSpaceOnUse" color-interpolation-filters="sRGB">
<feFlood flood-opacity="0" result="BackgroundImageFix"/>
<feBlend mode="normal" in="SourceGraphic" in2="BackgroundImageFix" result="shape"/>
<feColorMatrix in="SourceAlpha" type="matrix" values="0 0 0 0 0 0 0 0 0 0 0 0 0 0 0 0 0 0 127 0" result="hardAlpha"/>
<feOffset dy="1"/>
<feGaussianBlur stdDeviation="1"/>
<feComposite in2="hardAlpha" operator="arithmetic" k2="-1" k3="1"/>
<feColorMatrix type="matrix" values="0 0 0 0 0.351493 0 0 0 0 0.39658 0 0 0 0 0.441667 0 0 0 1 0"/>
<feBlend mode="normal" in2="shape" result="effect1_innerShadow"/>
</filter>
</defs>
</svg>